<?xml version="1.0" encoding="UTF-8" standalone="no"?>
<svg
   xmlns:dc="http://purl.org/dc/elements/1.1/"
   xmlns:cc="http://creativecommons.org/ns#"
   xmlns:rdf="http://www.w3.org/1999/02/22-rdf-syntax-ns#"
   xmlns:svg="http://www.w3.org/2000/svg"
   xmlns="http://www.w3.org/2000/svg"
   xmlns:sodipodi="http://sodipodi.sourceforge.net/DTD/sodipodi-0.dtd"
   xmlns:inkscape="http://www.inkscape.org/namespaces/inkscape"
   height="512pt"
   viewBox="0 0 512 511"
   width="512pt"
   version="1.1"
   id="svg8"
   sodipodi:docname="edit.svg"
   inkscape:version="0.92.5 (2060ec1f9f, 2020-04-08)">
  <metadata
     id="metadata14">
    <rdf:RDF>
      <cc:Work
         rdf:about="">
        <dc:format>image/svg+xml</dc:format>
        <dc:type
           rdf:resource="http://purl.org/dc/dcmitype/StillImage" />
      </cc:Work>
    </rdf:RDF>
  </metadata>
  <defs
     id="defs12" />
  <sodipodi:namedview
     pagecolor="#ffffff"
     bordercolor="#666666"
     borderopacity="1"
     objecttolerance="10"
     gridtolerance="10"
     guidetolerance="10"
     inkscape:pageopacity="0"
     inkscape:pageshadow="2"
     inkscape:window-width="644"
     inkscape:window-height="480"
     id="namedview10"
     showgrid="false"
     inkscape:zoom="0.34570313"
     inkscape:cx="341.33333"
     inkscape:cy="341.33333"
     inkscape:window-x="392"
     inkscape:window-y="180"
     inkscape:window-maximized="0"
     inkscape:current-layer="svg8" />
  <path
     d="m405.332031 256.484375c-11.796875 0-21.332031 9.558594-21.332031 21.332031v170.667969c0 11.753906-9.558594 21.332031-21.332031 21.332031h-298.667969c-11.777344 0-21.332031-9.578125-21.332031-21.332031v-298.667969c0-11.753906 9.554687-21.332031 21.332031-21.332031h170.667969c11.796875 0 21.332031-9.558594 21.332031-21.332031 0-11.777344-9.535156-21.335938-21.332031-21.335938h-170.667969c-35.285156 0-64 28.714844-64 64v298.667969c0 35.285156 28.714844 64 64 64h298.667969c35.285156 0 64-28.714844 64-64v-170.667969c0-11.796875-9.539063-21.332031-21.335938-21.332031zm0 0"
     id="path2"
     style="fill:#666666" />
  <path
     d="m200.019531 237.050781c-1.492187 1.492188-2.496093 3.390625-2.921875 5.4375l-15.082031 75.4375c-.703125 3.496094.40625 7.101563 2.921875 9.640625 2.027344 2.027344 4.757812 3.113282 7.554688 3.113282.679687 0 1.386718-.0625 2.089843-.210938l75.414063-15.082031c2.089844-.429688 3.988281-1.429688 5.460937-2.925781l168.789063-168.789063-75.414063-75.410156zm0 0"
     id="path4"
     style="fill:#666666" />
  <path
     d="m496.382812 16.101562c-20.796874-20.800781-54.632812-20.800781-75.414062 0l-29.523438 29.523438 75.414063 75.414062 29.523437-29.527343c10.070313-10.046875 15.617188-23.445313 15.617188-37.695313s-5.546875-27.648437-15.617188-37.714844zm0 0"
     id="path6" />
</svg>
